# xmcd CD database file
#
# Track frame offsets:
#	150
#	22313
#	39417
#	53918
#	70293
#	95203
#	118277
#	143202
#	159628
#	173666
#	185140
#	197096
#	223048
#	238532
#
# Disc length: 3385 seconds
#
# Revision: 0
# Processed by: cddbd v1.5.1PL0 Copyright (c) Steve Scherf et al.
# Submitted via: CDex 1.51
#
DISCID=da0d370e
DTITLE=Vargas Blues Band - Chill Latin Blues
DYEAR=1900
DGENRE=Blues
TTITLE0=Other vision
TTITLE1=Wahabu
TTITLE2=Erika
TTITLE3=Vivir al alba
TTITLE4=Buenos Aires Blues
TTITLE5=Night Club
TTITLE6=Blues Latino
TTITLE7=Flower power
TTITLE8=Brother 
TTITLE9=Cry for love
TTITLE10=Mojo man 
TTITLE11=Del sur
TTITLE12=Spanish fly
TTITLE13=Blue hondo
EXTD=
EXTT0=
EXTT1=
EXTT2=
EXTT3=
EXTT4=
EXTT5=
EXTT6=
EXTT7=
EXTT8=
EXTT9=
EXTT10=
EXTT11=
EXTT12=
EXTT13=
PLAYORDER=
